<?xml version="1.0" standalone="no"?>
<!DOCTYPE svg PUBLIC "-//W3C//DTD SVG 20010904//EN"
 "http://www.w3.org/TR/2001/REC-SVG-20010904/DTD/svg10.dtd">
<svg version="1.0" xmlns="http://www.w3.org/2000/svg"
 width="3937.000000pt" height="3937.000000pt" viewBox="0 0 3937.000000 3937.000000"
 preserveAspectRatio="xMidYMid meet">
<metadata>
Created by potrace 1.14, written by Peter Selinger 2001-2017
</metadata>
<g transform="translate(0.000000,3937.000000) scale(0.100000,-0.100000)"
fill="#000000" stroke="none">
<path d="M0 19685 l0 -19685 19685 0 19685 0 0 19685 0 19685 -19685 0 -19685
0 0 -19685z m37950 0 l0 -18265 -18265 0 -18265 0 0 18265 0 18265 18265 0
18265 0 0 -18265z"/>
<path d="M11461 32008 c-22 -57 -52 -181 -65 -268 -24 -158 -28 -285 -15 -495
24 -374 15 -591 -33 -813 -65 -306 -230 -635 -465 -924 -43 -53 -186 -228
-319 -390 -489 -596 -920 -1138 -1909 -2403 -318 -407 -903 -1152 -1299 -1655
-396 -503 -838 -1064 -981 -1245 -143 -182 -480 -611 -750 -953 -269 -343
-491 -627 -493 -632 -4 -12 7329 -13 8493 -1 440 5 847 5 905 0 295 -24 418
-112 482 -347 l22 -77 7 -7020 c6 -4887 11 -7047 19 -7108 26 -214 107 -312
299 -359 107 -27 156 -27 3156 -33 2377 -4 4769 -15 6155 -30 289 -3 1929 -8
3645 -11 2942 -7 3123 -6 3179 10 73 21 119 65 136 127 13 47 8 100 -25 249
-25 111 -15 280 24 430 131 492 145 570 145 815 1 115 -4 202 -12 240 -38 172
-89 295 -182 440 -318 496 -256 911 190 1270 36 29 189 135 340 235 364 242
478 329 644 490 212 207 276 308 284 448 4 79 3 86 -31 155 -39 80 -115 160
-230 247 -80 60 -123 116 -132 170 -13 79 58 183 202 293 75 57 91 64 193 76
85 11 141 34 176 73 36 39 101 151 247 427 141 269 227 416 305 519 111 149
253 279 402 367 127 76 160 116 160 200 -1 104 -70 194 -215 279 -192 113
-310 213 -640 536 -281 276 -358 341 -560 480 -317 217 -538 401 -1050 871
-468 430 -629 569 -856 741 -344 261 -642 429 -1031 583 -297 116 -364 120
-566 27 -177 -81 -237 -97 -372 -97 -137 1 -195 20 -293 93 -123 94 -199 219
-282 462 -86 253 -179 414 -282 491 -124 94 -213 118 -453 125 -96 2 -215 11
-265 19 -237 40 -474 136 -546 222 -24 28 -26 41 -32 154 -13 262 -80 391
-354 679 -70 75 -203 228 -294 340 -826 1016 -1369 1456 -2124 1720 -145 51
-189 75 -255 141 -62 64 -90 120 -140 288 -82 269 -180 446 -466 838 -75 103
-242 346 -369 538 -128 193 -269 400 -315 460 -215 286 -403 470 -595 582 -33
20 -274 146 -535 281 -670 345 -841 442 -1175 665 -519 347 -882 642 -1250
1018 -340 347 -598 688 -790 1044 -129 238 -174 306 -259 391 -81 81 -167 127
-261 142 -33 5 -130 7 -215 4 -457 -14 -810 92 -1077 325 -83 73 -174 187
-252 320 -75 126 -156 211 -260 273 -38 23 -159 77 -267 121 -322 129 -401
188 -494 370 -121 239 -220 333 -565 539 -445 266 -721 393 -1445 670 -850
324 -1195 482 -1557 712 -51 32 -95 58 -98 58 -3 0 -9 -10 -14 -22z"/>
</g>
</svg>
